<svg width="20" height="20" viewBox="0 0 20 20" fill="none" xmlns="http://www.w3.org/2000/svg">
<path d="M4.27025 18.1828C5.89581 19.3239 7.86889 20 10.0002 20C15.5153 20 19.9986 15.515 19.9986 10.0015C19.9986 8.92948 19.826 7.90085 19.5122 6.93078C18.6648 4.30918 16.7591 2.16428 14.3024 0.988257C12.9965 0.361882 11.5427 -0.000381431 9.99982 3.01382e-07C4.48784 -0.000381431 0.00134277 4.48879 0.00134277 10.0015C0.00134277 12.217 0.734794 14.2591 1.95696 15.9177C2.60204 16.7915 3.38005 17.5568 4.27025 18.1828ZM16.815 4.40929C17.4306 5.15553 17.9262 6.00303 18.2707 6.92424C18.3456 7.12475 18.2331 7.34391 18.0295 7.40985L14.5301 8.54088C14.3265 8.60682 14.1101 8.49392 14.0267 8.29652C13.9152 8.03237 13.7776 7.78002 13.6159 7.54327C13.4949 7.36562 13.5066 7.11119 13.6598 6.96108L16.2852 4.38682C16.438 4.23708 16.6789 4.24405 16.815 4.40929ZM12.0489 5.70747L13.6299 2.3916C13.7222 2.19806 13.9541 2.11623 14.1434 2.21629C14.3274 2.31341 14.508 2.41691 14.6848 2.52659C14.8667 2.63987 14.9168 2.8869 14.8031 3.06846L12.844 6.19041C12.7303 6.37192 12.5 6.41267 12.3188 6.29863C12.2878 6.27877 12.2564 6.2595 12.2246 6.24084C12.04 6.131 11.9566 5.90101 12.0489 5.70747ZM9.99982 7.39158C11.4372 7.39158 12.6082 8.56373 12.6086 10.0011C12.6082 11.4398 11.4373 12.6084 9.99982 12.608C8.5624 12.608 7.39297 11.4398 7.39297 10.0011C7.39335 8.56373 8.56279 7.39158 9.99982 7.39158ZM3.21252 14.9942L6.1708 12.8194C6.34339 12.6925 6.58465 12.731 6.72622 12.8919C6.8682 13.0537 7.02194 13.2047 7.18621 13.3438C7.34988 13.4819 7.39335 13.7231 7.27076 13.8984L5.16389 16.9067C5.04131 17.0824 4.79891 17.1251 4.62942 16.994C4.07595 16.5669 3.57598 16.0756 3.13689 15.5313C3.00266 15.3642 3.03993 15.1214 3.21252 14.9942Z" fill="white"/>
<path d="M9.99982 11.5976C10.8822 11.5976 11.5975 10.8824 11.5975 10C11.5975 9.11765 10.8822 8.40236 9.99982 8.40236C9.11747 8.40236 8.40218 9.11765 8.40218 10C8.40218 10.8824 9.11747 11.5976 9.99982 11.5976Z" fill="white"/>
</svg>
