<svg width="20" height="16" viewBox="0 0 20 16" fill="none" xmlns="http://www.w3.org/2000/svg">
<path d="M19.8417 5.725C19.7338 5.53015 19.5756 5.36782 19.3835 5.25495C19.1915 5.14209 18.9727 5.08282 18.75 5.08333H6.905C6.50565 5.08342 6.1171 5.21301 5.79766 5.45267C5.47822 5.69232 5.24511 6.02912 5.13333 6.4125L2.78875 14.45C2.66534 14.8731 2.40804 15.2448 2.05546 15.5092C1.70289 15.7737 1.27406 15.9166 0.833333 15.9167H15.7283C16.1691 15.9167 16.598 15.7737 16.9507 15.5093C17.3033 15.2448 17.5607 14.8731 17.6842 14.45L19.935 6.73333C19.9873 6.56752 20.006 6.39294 19.99 6.21981C19.9741 6.04668 19.9234 5.87847 19.8417 5.725Z" fill="white"/>
<path d="M1.9875 14.2167L4.33333 6.17917C4.49676 5.62352 4.83532 5.13554 5.29857 4.78791C5.76182 4.44028 6.32499 4.25161 6.90417 4.25H17.5V3.83333C17.5 3.39131 17.3244 2.96738 17.0118 2.65482C16.6993 2.34226 16.2754 2.16667 15.8333 2.16667H9.48167C9.35748 2.16669 9.23484 2.13903 9.12269 2.08569C9.01054 2.03236 8.91169 1.95469 8.83333 1.85833L8.01417 0.85125C7.81907 0.611361 7.57296 0.417968 7.29374 0.285133C7.01452 0.152298 6.70921 0.0833601 6.4 0.0833333H1.66667C1.22464 0.0833333 0.800716 0.258928 0.488155 0.571489C0.175594 0.884049 -2.98023e-07 1.30797 -2.98023e-07 1.75L-2.98023e-07 14.25C-2.98023e-07 14.471 0.0877971 14.683 0.244077 14.8393C0.400358 14.9955 0.612319 15.0833 0.833333 15.0833C1.09344 15.0826 1.34635 14.9979 1.55434 14.8417C1.76234 14.6855 1.91428 14.4663 1.9875 14.2167Z" fill="white"/>
</svg>
