<svg width="20" height="20" viewBox="0 0 20 20" fill="none" xmlns="http://www.w3.org/2000/svg">
<path d="M7.59148 13.2031H7.59238C8.32764 13.2036 9.0557 13.0583 9.73449 12.7757C10.4133 12.4932 11.0294 12.0789 11.5471 11.5568C13.7284 9.37617 13.729 5.82371 11.5484 3.64238C10.4956 2.59277 9.07015 2.00246 7.58352 2.00043C7.31369 2.00076 7.04425 2.0208 6.77734 2.06039C5.58902 2.23883 4.48887 2.79253 3.63758 3.64062C1.45625 5.82129 1.4557 9.3743 3.63637 11.5557C4.15404 12.078 4.77013 12.4926 5.449 12.7753C6.12787 13.0581 6.85607 13.2035 7.59148 13.2031ZM6.61883 2.71203C6.70328 2.69495 6.78815 2.68004 6.87336 2.6673C6.92459 2.65966 6.97677 2.67268 7.0184 2.7035C7.06004 2.73432 7.08773 2.78042 7.09537 2.83166C7.10302 2.8829 7.09 2.93507 7.05917 2.9767C7.02835 3.01834 6.98225 3.04603 6.93102 3.05367C6.85289 3.06539 6.77383 3.07922 6.69637 3.09488C6.67108 3.10038 6.64495 3.10079 6.6195 3.0961C6.59405 3.09141 6.56978 3.0817 6.54811 3.06755C6.52644 3.0534 6.5078 3.03508 6.49327 3.01367C6.47875 2.99225 6.46862 2.96816 6.46348 2.94279C6.45834 2.91743 6.4583 2.8913 6.46335 2.86591C6.4684 2.84053 6.47844 2.81641 6.49289 2.79494C6.50735 2.77347 6.52592 2.75509 6.54754 2.74086C6.56916 2.72664 6.59339 2.71681 6.61883 2.71203ZM6.34102 6.33203L6.85 5.82305C6.70195 5.6235 6.60023 5.39346 6.55226 5.14966C6.50428 4.90586 6.51125 4.65444 6.57266 4.41367C6.57913 4.38885 6.59043 4.36555 6.60591 4.3451C6.62139 4.32465 6.64075 4.30745 6.66288 4.29448C6.68501 4.28151 6.70947 4.27303 6.73488 4.26952C6.76029 4.266 6.78614 4.26753 6.81096 4.274C6.83577 4.28048 6.85907 4.29178 6.87952 4.30726C6.89997 4.32274 6.91718 4.3421 6.93014 4.36423C6.94311 4.38636 6.9516 4.41082 6.95511 4.43623C6.95863 4.46164 6.9571 4.48749 6.95063 4.5123C6.90601 4.68782 6.89917 4.87081 6.93058 5.04916C6.96199 5.22751 7.03092 5.39716 7.13281 5.54687C7.31462 5.39282 7.53599 5.29285 7.77177 5.25832C8.00756 5.2238 8.2483 5.2561 8.46664 5.35156C8.63868 5.21135 8.84121 5.11344 9.05795 5.0657C9.2747 5.01795 9.49962 5.0217 9.71465 5.07664L9.85414 4.89223C9.90704 4.82175 9.93281 4.73459 9.92674 4.64668C9.92067 4.55877 9.88317 4.47598 9.82109 4.41344L9.80859 4.40094C9.79033 4.38282 9.77583 4.36128 9.76591 4.33755C9.756 4.31382 9.75087 4.28836 9.75082 4.26264C9.75077 4.23692 9.75581 4.21144 9.76563 4.18767C9.77545 4.1639 9.78987 4.1423 9.80807 4.12412C9.82626 4.10594 9.84786 4.09153 9.87164 4.08172C9.89542 4.07191 9.9209 4.06689 9.94662 4.06695C9.97234 4.06702 9.99779 4.07216 10.0215 4.08209C10.0452 4.09202 10.0668 4.10653 10.0849 4.1248L10.0973 4.13727C10.2258 4.26665 10.3034 4.43793 10.3159 4.61981C10.3285 4.80169 10.2752 4.98201 10.1657 5.12781L10.0876 5.23133C10.1872 5.29082 10.279 5.36242 10.361 5.44449C10.4213 5.505 10.4757 5.57119 10.5233 5.64215L10.6125 5.57465C10.7583 5.46518 10.9387 5.41185 11.1206 5.42441C11.3025 5.43697 11.4738 5.51458 11.6032 5.64305L11.6155 5.65543C11.6522 5.69205 11.6728 5.74172 11.6728 5.79352C11.6728 5.84533 11.6523 5.89502 11.6156 5.93166C11.579 5.9683 11.5294 5.9889 11.4775 5.98892C11.4257 5.98894 11.3761 5.96837 11.3394 5.93176L11.327 5.91934C11.2645 5.85721 11.1817 5.81968 11.0937 5.81359C11.0058 5.80751 10.9186 5.83329 10.8482 5.88621L10.6952 6.00187C10.7664 6.23231 10.7795 6.47674 10.7335 6.71348C10.6875 6.95022 10.5838 7.17194 10.4316 7.35898C10.4828 7.49905 10.509 7.64701 10.509 7.79613C10.5101 8.09689 10.4037 8.38815 10.2089 8.6173C10.3574 8.7154 10.5248 8.78139 10.7003 8.81103C10.8758 8.84067 11.0556 8.83332 11.2281 8.78945L11.3268 9.16738C11.1923 9.20247 11.0538 9.2202 10.9148 9.22016C10.5618 9.21922 10.218 9.10765 9.93172 8.90113L9.42105 9.4118L9.60906 9.59977C9.71221 9.70322 9.79287 9.82687 9.84598 9.96296C9.89909 10.0991 9.9235 10.2447 9.9177 10.3906L9.90453 10.7142C9.90251 10.7646 9.88109 10.8122 9.84475 10.8472C9.8084 10.8821 9.75995 10.9016 9.70953 10.9017H9.70145C9.67582 10.9006 9.65065 10.8945 9.62737 10.8838C9.60409 10.873 9.58316 10.8577 9.56578 10.8389C9.5484 10.82 9.5349 10.7979 9.52606 10.7738C9.51722 10.7498 9.51321 10.7242 9.51426 10.6986L9.52738 10.375C9.53102 10.283 9.51559 10.1912 9.48208 10.1054C9.44856 10.0196 9.39768 9.94161 9.33262 9.87641L9.14465 9.6884L8.52883 10.3042C8.52258 10.3105 8.51602 10.3162 8.50969 10.3224C8.53897 10.5718 8.51175 10.8245 8.43002 11.0619C8.3483 11.2993 8.21418 11.5153 8.03762 11.6938L7.76141 11.4176C7.97327 11.2037 8.10222 10.9215 8.12523 10.6214C7.70697 10.8761 7.2151 10.9824 6.72899 10.9232C6.24289 10.864 5.79092 10.6427 5.44602 10.2951C5.10112 9.94744 4.88342 9.49373 4.82805 9.00717C4.77269 8.52061 4.88288 8.02959 5.14086 7.61336C4.83284 7.6319 4.5421 7.76192 4.32293 7.97914C4.30482 7.99741 4.28328 8.01192 4.25955 8.02184C4.23582 8.03176 4.21037 8.0369 4.18465 8.03695C4.15893 8.03701 4.13345 8.03198 4.10967 8.02217C4.0859 8.01235 4.0643 7.99793 4.04611 7.97975C4.02793 7.96156 4.01351 7.93996 4.00369 7.91618C3.99388 7.89241 3.98885 7.86693 3.98891 7.84121C3.98896 7.81549 3.9941 7.79003 4.00402 7.7663C4.01394 7.74257 4.02845 7.72104 4.04672 7.70293C4.22793 7.52373 4.44767 7.38829 4.68919 7.30693C4.9307 7.22557 5.18761 7.20045 5.44031 7.23348C5.44328 7.23051 5.44598 7.22738 5.44894 7.22441L6.06477 6.60859L5.8641 6.40793C5.79893 6.34282 5.72099 6.2919 5.63518 6.25838C5.54937 6.22486 5.45756 6.20947 5.36551 6.21316L5.04195 6.22633C4.99019 6.22843 4.93972 6.20989 4.90163 6.17477C4.86355 6.13966 4.84097 6.09086 4.83887 6.0391C4.83676 5.98734 4.85531 5.93687 4.89042 5.89878C4.92553 5.8607 4.97433 5.83812 5.02609 5.83601L5.34965 5.82285C5.49561 5.81708 5.64119 5.84153 5.77726 5.89467C5.91333 5.94782 6.03694 6.02851 6.14035 6.13168L6.34102 6.33203ZM2.80859 7.8118C2.75679 7.8118 2.70711 7.79122 2.67049 7.75459C2.63386 7.71796 2.61328 7.66828 2.61328 7.61648C2.61234 6.63431 2.90075 5.67363 3.44249 4.85438C3.98424 4.03513 4.75532 3.39363 5.65945 3.00996C5.68313 2.99944 5.70866 2.99373 5.73456 2.99317C5.76047 2.99261 5.78622 2.99721 5.81033 3.00671C5.83443 3.0162 5.85641 3.03039 5.87498 3.04846C5.89355 3.06653 5.90834 3.08811 5.91849 3.11195C5.92863 3.13578 5.93394 3.1614 5.93409 3.18731C5.93423 3.21322 5.92923 3.2389 5.91936 3.26285C5.90949 3.28681 5.89495 3.30856 5.87659 3.32684C5.85823 3.34512 5.83642 3.35957 5.81242 3.36934C4.97883 3.72307 4.2679 4.31453 3.76842 5.06987C3.26894 5.8252 3.00303 6.71094 3.00391 7.61648C3.00391 7.66828 2.98333 7.71796 2.9467 7.75459C2.91007 7.79122 2.86039 7.8118 2.80859 7.8118Z" fill="white"/>
<path d="M10.1352 6.89641C10.1644 6.92555 10.1919 6.95582 10.2178 6.98723C10.3497 6.76834 10.3991 6.50956 10.3572 6.25746L10.189 6.38469C10.1685 6.40016 10.1452 6.41145 10.1204 6.41791C10.0956 6.42438 10.0697 6.42589 10.0443 6.42237C10.0189 6.41884 9.99446 6.41034 9.97233 6.39736C9.95021 6.38438 9.93086 6.36717 9.91539 6.34672C9.88414 6.3054 9.87059 6.25337 9.87771 6.20206C9.88483 6.15075 9.91204 6.10437 9.95336 6.07312L10.2114 5.87781C10.1748 5.8211 10.1323 5.76844 10.0846 5.7207C10.0152 5.65124 9.936 5.59225 9.84957 5.54558L9.66715 5.7868C9.65168 5.80725 9.63233 5.82446 9.61021 5.83744C9.58808 5.85042 9.56362 5.85892 9.53822 5.86244C9.51281 5.86597 9.48696 5.86446 9.46214 5.85799C9.43732 5.85153 9.41401 5.84024 9.39356 5.82476C9.3731 5.80929 9.35589 5.78994 9.34291 5.76782C9.32993 5.7457 9.32143 5.72124 9.31791 5.69583C9.31438 5.67043 9.31589 5.64457 9.32236 5.61975C9.32882 5.59493 9.34011 5.57163 9.35559 5.55117L9.44977 5.42664C9.22778 5.40787 9.0057 5.4617 8.81695 5.58004C8.83027 5.5923 8.84352 5.60469 8.85645 5.61758L10.1352 6.89641ZM5.25551 9.18312C5.33245 9.49958 5.49442 9.789 5.7239 10.0201C5.95339 10.2512 6.24166 10.4152 6.55758 10.4943L6.39168 9.35972L5.25551 9.18312ZM9.85902 7.17262L9.35777 6.67137L6.77152 9.25781L6.96012 10.5475C7.19946 10.5525 7.43734 10.5091 7.65946 10.4198C7.88158 10.3305 8.08335 10.1972 8.25262 10.028L9.86074 8.41984C9.94251 8.33785 10.0073 8.24056 10.0515 8.13352C10.0957 8.02648 10.1183 7.91179 10.1182 7.79599C10.118 7.6802 10.095 7.56557 10.0506 7.45865C10.0061 7.35173 9.94102 7.25461 9.85902 7.17285V7.17262Z" fill="white"/>
<path d="M7.59137 14.375H7.59238C9.24827 14.378 10.847 13.7699 12.0823 12.6671L13.1347 13.7195L12.5089 14.3452L13.289 15.1253L15.1253 13.289L14.3453 12.5089L13.7195 13.1347L12.6667 12.082C13.8082 10.7895 14.4142 9.11051 14.3612 7.38689C14.3082 5.66327 13.6003 4.02465 12.3815 2.80469C11.1065 1.53534 9.38091 0.822347 7.5818 0.821562C7.25513 0.821633 6.92891 0.84559 6.60574 0.893242C5.16729 1.10853 3.83539 1.77822 2.80469 2.80445C1.85786 3.75227 1.21309 4.95937 0.951773 6.27335C0.690459 7.58733 0.824322 8.94928 1.33646 10.1872C1.8486 11.4252 2.71605 12.4837 3.82929 13.229C4.94254 13.9743 6.25166 14.3731 7.59137 14.375ZM3.36141 3.36008C3.91719 2.80446 4.57698 2.36376 5.30308 2.06313C6.02919 1.7625 6.8074 1.60783 7.59328 1.60795C8.37916 1.60807 9.15733 1.76299 9.88334 2.06384C10.6094 2.3647 11.269 2.80562 11.8246 3.36141C14.1575 5.69508 14.157 9.50016 11.8233 11.8331C11.2693 12.3915 10.6102 12.8346 9.88402 13.1368C9.15782 13.439 8.37894 13.5943 7.59238 13.5937H7.59141C6.80467 13.5943 6.02563 13.4388 5.29935 13.1364C4.57306 12.834 3.91393 12.3905 3.36008 11.8318C1.02734 9.49809 1.02773 5.69301 3.36141 3.36008ZM13.5652 15.4015L15.4015 13.5652L15.8715 14.0352L14.0352 15.8716L13.5652 15.4015ZM16.1478 14.3114L14.3114 16.1478L16.963 18.7994C17.2066 19.0429 17.5368 19.1797 17.8812 19.1797C18.2256 19.1797 18.5559 19.0429 18.7994 18.7994C19.0429 18.5559 19.1797 18.2256 19.1797 17.8812C19.1797 17.5368 19.0429 17.2066 18.7994 16.963L16.1478 14.3114Z" fill="white"/>
<path d="M5.20531 8.78L6.49609 8.98047L9.08156 6.395L8.58031 5.89379C8.41505 5.72846 8.19096 5.63544 7.9572 5.63511C7.72344 5.63478 7.49909 5.72717 7.33336 5.89203L5.72523 7.5002C5.55743 7.66793 5.42495 7.86762 5.33565 8.08744C5.24635 8.30726 5.20203 8.54276 5.20531 8.78Z" fill="white"/>
</svg>
